<?xml version="1.0" standalone="no"?>
<!DOCTYPE svg PUBLIC "-//W3C//DTD SVG 20010904//EN"
 "http://www.w3.org/TR/2001/REC-SVG-20010904/DTD/svg10.dtd">
<svg version="1.0" xmlns="http://www.w3.org/2000/svg"
 width="300.000000pt" height="375.000000pt" viewBox="0 0 300.000000 375.000000"
 preserveAspectRatio="xMidYMid meet">
<metadata>
Created by potrace 1.10, written by Peter Selinger 2001-2011
</metadata>
<g transform="translate(0.000000,375.000000) scale(0.100000,-0.100000)"
fill="#000000" stroke="none">
<path d="M1455 3343 c-11 -3 -26 -10 -34 -17 -11 -8 -13 -8 -8 1 4 6 -11 3
-32 -8 -47 -22 -61 -24 -62 -6 0 6 -4 2 -9 -10 -5 -13 -15 -23 -23 -23 -27 0
-108 -68 -151 -126 -24 -32 -54 -90 -66 -127 -21 -61 -22 -80 -17 -195 4 -70
9 -144 13 -165 7 -37 6 -37 -23 -31 -28 5 -31 3 -37 -26 -9 -49 -7 -81 9 -125
8 -22 14 -63 15 -90 0 -53 12 -75 41 -75 24 0 32 16 20 37 -6 10 -11 12 -11 6
0 -7 -5 -13 -10 -13 -6 0 -4 13 5 30 10 19 11 30 5 30 -6 0 -8 5 -5 10 4 6 0
22 -9 35 -17 26 -21 39 -8 32 4 -3 8 6 9 20 1 18 -2 22 -10 14 -21 -21 -27
-11 -27 45 0 47 2 55 14 45 26 -21 31 9 31 174 0 155 1 162 28 220 16 33 30
68 32 77 6 30 51 99 59 91 4 -5 6 1 4 12 -2 13 3 20 12 20 8 0 17 2 20 5 3 3
16 11 30 18 14 7 17 10 8 8 -30 -9 -20 4 12 15 17 6 30 15 30 21 0 5 4 7 10 3
11 -7 61 5 56 14 -5 7 14 10 121 17 l82 6 100 -57 c64 -35 107 -66 117 -85 10
-16 22 -26 27 -23 6 3 7 1 3 -6 -4 -6 6 -34 23 -61 30 -48 36 -65 45 -123 4
-24 2 -28 -12 -22 -14 5 -15 4 -4 -6 15 -16 16 -33 1 -24 -5 4 -3 -9 5 -29 8
-20 12 -36 8 -36 -4 0 -8 -39 -9 -86 -2 -63 1 -84 10 -81 8 2 15 46 20 128 4
68 9 139 10 158 3 36 -35 128 -61 147 -8 6 -12 16 -9 21 4 6 0 16 -8 23 -8 7
-15 17 -15 23 0 5 -11 19 -24 31 -23 21 -38 31 -102 66 -18 11 -51 30 -73 45
-30 18 -53 25 -83 23 -24 -1 -50 1 -58 4 -8 3 -24 3 -35 1z"/>
<path d="M1595 3141 c4 -14 3 -21 -2 -18 -6 4 -8 -4 -5 -18 6 -32 10 -31 23 2
8 21 6 30 -7 42 -15 15 -16 14 -9 -8z"/>
<path d="M1354 3112 c4 -7 1 -15 -8 -18 -24 -9 -19 -19 10 -22 24 -2 25 0 13
15 -8 9 -12 18 -11 20 2 3 0 8 -4 11 -4 4 -4 1 0 -6z"/>
<path d="M1480 3090 c0 -6 -12 -8 -27 -6 -18 4 -23 2 -16 -5 13 -13 76 -2 67
12 -7 12 -24 12 -24 -1z"/>
<path d="M1781 3009 c14 -26 29 -33 29 -12 0 15 2 16 10 3 5 -8 10 -10 10 -4
0 19 -13 24 -28 11 -13 -10 -15 -9 -10 4 4 9 1 16 -7 16 -10 0 -11 -5 -4 -18z"/>
<path d="M1111 2794 c-37 -31 -45 -65 -10 -40 18 12 54 66 44 66 -2 0 -17 -12
-34 -26z"/>
<path d="M1481 2793 c-9 -19 -14 -22 -30 -14 -14 8 -20 7 -25 -4 -9 -25 28
-37 60 -20 16 8 55 17 86 21 99 11 61 47 -44 42 -28 -1 -39 -8 -47 -25z"/>
<path d="M1655 2809 c-17 -6 -17 -8 -2 -8 9 -1 17 -6 17 -12 0 -5 5 -7 10 -4
6 3 13 -1 16 -9 3 -9 10 -16 15 -16 12 0 -11 48 -25 53 -6 2 -20 1 -31 -4z"/>
<path d="M1185 2800 c-4 -6 -10 -8 -15 -5 -4 3 -10 -1 -13 -9 -6 -15 16 -29
28 -18 4 4 10 7 13 8 20 2 41 17 36 25 -7 12 -41 11 -49 -1z"/>
<path d="M1250 2792 c0 -11 7 -23 16 -26 40 -15 45 0 9 27 -24 17 -25 17 -25
-1z"/>
<path d="M1309 2750 c-1 -8 -1 -23 0 -32 1 -10 -4 -18 -13 -18 -10 0 -15 -9
-14 -27 1 -16 -2 -41 -6 -58 l-7 -30 35 40 c47 53 52 69 27 108 -12 19 -21 26
-22 17z"/>
<path d="M1597 2750 c17 -4 43 -17 58 -29 29 -22 45 -27 45 -13 0 13 -85 52
-111 51 -20 -1 -18 -2 8 -9z"/>
<path d="M1231 2746 c10 -8 69 -36 69 -32 0 13 -34 36 -52 36 -12 0 -19 -2
-17 -4z"/>
<path d="M1568 2735 c-2 -3 -18 -6 -34 -8 -26 -3 -77 -25 -64 -27 39 -9 49 -8
54 5 8 22 26 18 26 -5 0 -28 50 -28 57 0 4 16 8 18 19 9 8 -6 11 -15 8 -20 -3
-5 2 -9 10 -9 25 0 28 18 4 33 -26 16 -73 29 -80 22z"/>
<path d="M1126 2698 c-9 -12 -16 -26 -16 -29 0 -13 45 4 58 23 17 23 30 23 28
1 -1 -14 7 -18 29 -18 23 0 30 4 30 20 0 27 -57 33 -92 9 -24 -15 -25 -15 -20
0 9 23 1 20 -17 -6z"/>
<path d="M1842 2691 c-10 -6 -11 -22 -5 -62 l8 -54 6 60 c7 70 7 66 -9 56z"/>
<path d="M1511 2665 c4 -17 13 -20 59 -22 52 -1 53 -1 13 6 -23 4 -49 13 -58
21 -15 13 -17 12 -14 -5z"/>
<path d="M1937 2673 c-2 -5 7 -19 20 -32 24 -25 31 -14 13 20 -11 19 -26 25
-33 12z"/>
<path d="M1165 2630 c-7 -12 32 -12 60 0 16 7 13 9 -17 9 -20 1 -40 -3 -43 -9z"/>
<path d="M1341 2615 c-1 -11 -8 -31 -17 -43 -22 -32 -12 -37 15 -9 17 19 20
29 12 48 -9 21 -10 22 -10 4z"/>
<path d="M1887 2584 c-10 -10 19 -53 38 -56 19 -3 19 -4 -3 -26 -13 -13 -30
-21 -37 -18 -19 7 -27 -20 -9 -34 9 -8 14 -9 14 -2 0 6 -6 13 -12 15 -8 3 -6
6 5 6 28 1 67 32 67 52 0 11 -4 19 -9 19 -5 0 -12 9 -16 19 -6 19 -29 34 -38
25z"/>
<path d="M1259 2500 c-14 -31 -14 -38 -3 -33 15 5 29 44 22 62 -1 6 -10 -7
-19 -29z"/>
<path d="M1324 2482 c3 -5 -2 -13 -12 -17 -15 -6 -14 -8 7 -19 22 -12 23 -14
6 -23 -30 -17 2 -25 34 -8 40 20 41 20 41 -16 0 -27 2 -30 15 -19 15 13 7 39
-21 67 -15 15 -28 17 -19 3 3 -5 2 -10 -3 -10 -12 0 -38 31 -34 39 2 3 -2 7
-9 10 -6 2 -9 -1 -5 -7z"/>
<path d="M1510 2482 c0 -8 -18 -12 -49 -12 -28 0 -53 -4 -56 -10 -10 -16 78
-12 101 4 10 8 16 18 11 22 -4 4 -7 2 -7 -4z"/>
<path d="M1847 2423 c-12 -19 -18 -101 -8 -107 11 -7 5 -91 -11 -146 -11 -37
-49 -77 -110 -116 -20 -13 -63 -48 -96 -79 -32 -30 -72 -65 -88 -77 -16 -13
-37 -31 -47 -41 -18 -18 -19 -18 -39 -1 -19 18 -19 18 -13 -8 11 -42 -15 -47
-44 -8 -15 18 -50 59 -79 91 -52 56 -53 58 -47 103 8 51 -9 88 -65 141 -34 32
-70 97 -70 127 0 10 -7 18 -15 18 -38 0 3 -102 68 -168 l52 -53 -2 -74 -2 -75
92 -96 93 -95 39 36 c86 80 241 212 301 257 35 26 70 58 79 72 15 23 24 108
25 236 0 26 3 31 12 22 7 -7 21 -12 33 -11 17 1 16 2 -5 8 -14 4 -30 17 -36
30 -7 12 -14 19 -17 14z"/>
<path d="M1573 2368 c7 -21 -35 -33 -65 -17 -17 9 -20 9 -16 -3 5 -11 -7 -13
-58 -10 -41 2 -64 0 -64 -7 0 -13 -3 -13 127 -14 112 -2 127 5 92 45 -14 16
-19 18 -16 6z"/>
<path d="M1233 2319 c1 -19 6 -21 46 -15 24 3 52 6 62 6 11 0 19 4 19 9 0 13
-58 19 -70 7 -7 -7 -16 -7 -30 2 -27 16 -29 15 -27 -9z"/>
<path d="M1797 2262 c-45 -98 -176 -186 -322 -217 -75 -15 -86 -21 -60 -31 36
-14 148 26 248 89 104 64 126 88 147 150 16 51 8 56 -13 9z"/>
<path d="M1307 2243 c6 -16 -2 -14 63 -19 55 -4 117 6 113 20 -2 3 -43 8 -92
9 -70 2 -88 0 -84 -10z"/>
<path d="M1880 2170 c0 -8 7 -36 16 -61 l17 -46 -62 -137 c-33 -75 -61 -139
-61 -141 0 -3 -20 -39 -45 -79 -25 -41 -45 -78 -45 -82 0 -4 -22 -51 -49 -104
-60 -115 -242 -565 -300 -739 -78 -234 -118 -435 -128 -648 -5 -116 -4 -133 9
-133 13 0 17 20 23 103 10 164 34 335 61 437 49 184 160 493 252 700 11 25 27
68 37 95 15 43 45 103 108 220 9 17 25 51 36 76 11 26 26 53 34 60 8 8 23 39
35 69 11 30 41 99 66 153 25 54 46 102 46 107 0 29 28 11 99 -63 74 -76 93
-90 217 -152 75 -38 153 -82 173 -98 20 -16 73 -53 117 -83 166 -110 174 -131
185 -499 8 -280 3 -363 -31 -555 -22 -120 -75 -336 -114 -458 -31 -97 -34
-129 -5 -57 36 92 127 438 150 575 21 121 24 166 24 440 0 292 -1 308 -23 380
-28 88 -56 122 -158 190 -40 26 -92 63 -115 82 -24 19 -96 62 -159 95 -63 34
-133 71 -155 84 -44 25 -223 215 -242 257 -7 15 -12 20 -13 12z"/>
<path d="M1327 2085 c-18 -13 -18 -14 2 -24 11 -6 32 -11 48 -11 l28 1 -33 17
c-18 10 -30 21 -26 25 12 12 0 7 -19 -8z"/>
<path d="M1145 1873 c-33 -19 -69 -43 -81 -54 -11 -10 -49 -31 -85 -45 -35
-14 -130 -60 -211 -101 -132 -66 -150 -79 -172 -116 -27 -47 -50 -119 -67
-210 -6 -33 -25 -113 -44 -176 -18 -64 -36 -147 -39 -186 -11 -102 -72 -526
-102 -698 -14 -82 -24 -151 -21 -153 12 -12 109 522 147 811 10 77 27 167 38
200 25 76 66 232 82 307 19 94 38 113 195 193 77 39 168 83 203 98 35 15 83
41 107 57 24 17 46 30 49 30 10 0 7 -47 -4 -76 -6 -14 -13 -63 -16 -108 -4
-69 -2 -85 14 -109 l19 -28 28 28 c46 46 72 86 80 121 11 52 -11 38 -56 -38
-23 -38 -45 -70 -50 -70 -19 0 -8 123 21 236 16 65 29 118 27 119 -1 1 -29
-14 -62 -32z"/>
<path d="M1379 1750 c-66 -8 -113 -36 -103 -59 16 -32 16 -151 0 -214 -8 -34
-19 -89 -25 -122 -5 -33 -43 -147 -85 -254 -48 -120 -78 -214 -82 -250 -3 -31
-13 -81 -21 -111 -15 -52 -112 -321 -133 -365 -5 -11 -12 -31 -15 -45 -12 -48
42 53 61 113 10 31 21 53 24 47 8 -13 78 211 129 410 21 85 57 201 79 257 23
56 46 126 52 155 6 29 17 82 25 118 8 36 15 75 15 88 0 12 5 22 11 22 7 0 9
-9 6 -22 -14 -53 -19 -108 -13 -125 12 -30 26 5 26 64 0 60 8 85 24 77 6 -3 3
1 -6 9 -11 9 -15 22 -12 38 4 18 3 20 -4 10 -8 -11 -12 -3 -17 32 -9 56 -2 77
24 77 11 0 23 5 26 10 3 6 19 10 34 10 31 0 93 -56 75 -68 -6 -4 -14 -16 -17
-27 -6 -17 -4 -17 13 4 19 22 59 23 45 1 -3 -5 0 -10 8 -10 8 0 22 -9 32 -20
14 -15 16 -29 11 -61 -7 -46 -49 -143 -65 -154 -6 -3 -11 -15 -11 -25 0 -14
-5 -18 -17 -14 -17 5 -17 5 0 -6 21 -13 22 -30 3 -30 -8 0 -17 -6 -20 -12 -3
-9 -9 -7 -20 6 -14 17 -16 17 -16 3 0 -9 8 -21 18 -26 10 -7 13 -14 7 -18 -12
-10 -45 -105 -50 -144 -2 -15 -11 -41 -19 -57 -8 -16 -24 -64 -35 -107 -12
-44 -25 -81 -30 -84 -5 -3 -19 -40 -32 -81 -15 -47 -25 -68 -27 -55 -4 20 -44
-152 -62 -270 -5 -33 -12 -78 -15 -100 -20 -126 -46 -237 -64 -271 -23 -42
-27 -79 -11 -89 6 -3 10 4 10 18 0 13 11 40 24 59 26 40 48 122 77 303 34 206
183 654 341 1023 l69 162 -39 48 c-39 46 -138 143 -144 141 -2 -1 -28 -5 -59
-9z"/>
<path d="M1473 1583 c-23 -9 -15 -42 12 -49 14 -4 29 -3 33 0 3 4 -4 9 -17 13
-16 4 -21 11 -18 24 3 11 4 19 4 18 -1 0 -8 -3 -14 -6z"/>
<path d="M1370 1523 c0 -15 2 -16 10 -3 8 12 10 11 10 -7 0 -13 -6 -23 -13
-23 -9 0 -12 -9 -9 -29 2 -16 -1 -32 -7 -35 -6 -4 -11 -37 -11 -77 0 -44 -4
-68 -10 -64 -5 3 -10 18 -10 33 0 15 -4 34 -10 42 -6 9 -8 -10 -6 -55 1 -39
-3 -92 -10 -120 -18 -68 -44 -248 -43 -287 1 -25 3 -27 6 -10 3 13 10 22 16
19 8 -3 13 9 13 32 1 20 9 68 19 106 9 39 20 97 25 130 5 33 21 107 35 165 33
131 37 193 13 198 -12 2 -18 -3 -18 -15z"/>
<path d="M1100 1358 c-17 -56 -49 -159 -71 -226 -49 -150 -103 -387 -85 -371
14 13 201 688 192 696 -2 3 -19 -42 -36 -99z"/>
<path d="M1420 1433 c1 -5 12 -21 25 -38 22 -27 25 -28 25 -9 0 11 -8 28 -18
37 -20 18 -32 22 -32 10z"/>
<path d="M824 1150 c13 -48 19 -95 11 -87 -5 4 -21 -5 -37 -20 -30 -28 -41
-25 -53 15 -5 18 -2 22 14 22 11 0 22 9 25 20 3 11 9 29 12 40 3 11 1 20 -5
20 -6 0 -11 -6 -11 -14 0 -8 -11 -24 -25 -37 -13 -13 -25 -34 -25 -46 0 -12
-8 -24 -18 -28 -11 -3 -24 -16 -30 -30 -10 -21 -8 -26 8 -35 22 -12 57 -14 46
-3 -4 4 -15 8 -23 8 -20 0 -26 15 -14 34 6 9 14 10 27 3 11 -5 34 -8 52 -7 17
1 32 -1 32 -6 0 -5 5 -9 11 -9 6 0 9 7 5 15 -3 8 4 30 14 48 17 29 18 39 9 68
-14 41 -35 66 -25 29z"/>
<path d="M755 960 c-5 -8 74 -24 82 -17 2 3 -14 9 -37 15 -22 5 -42 6 -45 2z"/>
<path d="M1010 828 c0 -24 -9 -67 -21 -97 -11 -30 -18 -66 -16 -80 3 -24 4
-24 11 -6 4 11 12 29 16 40 24 56 42 135 36 159 -10 41 -26 31 -26 -16z"/>
<path d="M902 673 c-16 -43 -46 -127 -67 -188 -35 -105 -36 -113 -25 -164 10
-45 14 -51 22 -36 7 12 7 28 1 50 -9 27 -4 51 24 141 19 60 46 144 59 188 14
43 23 80 21 83 -3 2 -18 -31 -35 -74z"/>
<path d="M281 104 c-12 -9 -26 -26 -30 -38 -19 -48 -22 -66 -13 -66 5 0 13 16
16 35 4 19 18 43 33 55 31 24 26 36 -6 14z"/>
</g>
</svg>
